PathFileType	4	(X/Y/Z)	Kaydara																																																																																																																									
DataRate	CameraRate	NumFrames	NumMarkers	Units	OrigDataRate	OrigDataStartFrame	OrigNumFrames																																																																																																																					
30	30	6	41	mm	30	57	147																																																																																																																					
Frame#	Time	PAIB_LFHD			PAIB_RFHD			PAIB_LBHD			PAIB_RBHD			PAIB_LFTShould			PAIB_RFTShould			PAIB_LRRShould			PAIB_RRRShould			PAIB_T10			PAIB_STRN			PAIB_TRUN			PAIB_LSHO			PAIB_LUPA			PAIB_LELB			PAIB_LFRM			PAIB_LWRA			PAIB_LWRB			PAIB_LFIN			PAIB_RSHO			PAIB_RUPA			PAIB_RELB			PAIB_RFRM			PAIB_RWRA			PAIB_RWRB			PAIB_RFIN			PAIB_LFWT			PAIB_RFWT			PAIB_LBWT			PAIB_RBWT			PAIB_LTHI			PAIB_LKNE			PAIB_LSHN			PAIB_LANK			PAIB_LHEE			PAIB_LTOE			PAIB_RTHI			PAIB_RKNE			PAIB_RSHN			PAIB_RANK			PAIB_RHEE			PAIB_RTOE		
		X1	Y1	Z1	X2	Y2	Z2	X3	Y3	Z3	X4	Y4	Z4	X5	Y5	Z5	X6	Y6	Z6	X7	Y7	Z7	X8	Y8	Z8	X9	Y9	Z9	X10	Y10	Z10	X11	Y11	Z11	X12	Y12	Z12	X13	Y13	Z13	X14	Y14	Z14	X15	Y15	Z15	X16	Y16	Z16	X17	Y17	Z17	X18	Y18	Z18	X19	Y19	Z19	X20	Y20	Z20	X21	Y21	Z21	X22	Y22	Z22	X23	Y23	Z23	X24	Y24	Z24	X25	Y25	Z25	X26	Y26	Z26	X27	Y27	Z27	X28	Y28	Z28	X29	Y29	Z29	X30	Y30	Z30	X31	Y31	Z31	X32	Y32	Z32	X33	Y33	Z33	X34	Y34	Z34	X35	Y35	Z35	X36	Y36	Z36	X37	Y37	Z37	X38	Y38	Z38	X39	Y39	Z39	X40	Y40	Z40	X41	Y41	Z41
																																																																																																																												
19	1.87	246.19997	1698.98102	-1972.69989	60.62144	1700.97382	-1983.85391	260.80475	1661.68274	-2097.86133	58.08027	1675.17136	-2097.19208	219.45494	1433.00156	-1967.97073	96.0029	1428.80112	-1971.58051	230.24832	1487.45941	-2115.9285	75.91547	1486.18835	-2109.36646	152.63858	1323.5849	-2184.66232	166.0479	1367.89581	-1927.64465	165.7346	1268.25211	-1899.14215	350.66551	1437.31781	-2049.53201	403.27538	1207.47482	-2051.35162	414.23058	1123.16185	-2091.28326	439.45377	1010.83344	-2048.00385	394.27612	900.83313	-1951.12885	424.30489	879.15947	-2020.43243	444.76646	846.70448	-1957.61566	-33.03591	1425.93155	-2027.56805	-94.12024	1250.19447	-2068.47	-114.85662	1133.6393	-2075.91339	-137.11064	998.75542	-2043.74542	-89.91211	896.7775	-1938.65311	-151.92703	881.91666	-1993.51837	-151.87538	849.12834	-1925.52094	270.69576	970.46577	-1935.94208	35.47422	971.62094	-1932.33551	207.80691	1026.69617	-2147.32025	63.3135	1029.05495	-2141.60248	259.29972	747.35191	-2147.11823	296.8107	514.53632	-2049.81812	268.02185	308.73554	-2052.35352	275.97904	128.07388	-2151.10184	223.65608	120.70396	-2202.23297	253.13448	75.73325	-1981.48529	4.60863	727.12631	-2138.86475	2.48996	485.57255	-2056.67603	60.8868	299.25039	-2055.97168	24.38624	106.48268	-2155.25879	86.83223	114.24356	-2210.92575	43.97336	80.33926	-1991.30875
20	1.903	244.99989	1698.67432	-1970.27237	59.53754	1700.87326	-1981.90033	259.7554	1661.19247	-2095.31647	57.00359	1675.00351	-2094.91562	218.47328	1432.85721	-1965.728	95.12357	1428.63266	-1969.01337	229.09035	1487.59811	-2113.50174	74.75808	1486.21048	-2106.79062	151.51322	1323.90976	-2182.8157	165.00694	1367.48535	-1925.34866	165.02499	1267.81319	-1897.11472	349.88766	1437.09167	-2046.66382	402.32201	1207.66533	-2050.00839	413.1546	1123.29865	-2090.05524	438.36086	1010.81444	-2047.22839	393.43513	900.44937	-1950.76721	423.19794	878.95981	-2020.19989	443.72646	846.21094	-1957.55905	-34.15628	1425.7016	-2025.15244	-94.91812	1250.04341	-2067.08176	-115.35539	1133.48091	-2075.00931	-137.10443	998.24478	-2043.26538	-89.48997	895.88181	-1938.61176	-151.49218	881.06392	-1993.48846	-151.31662	847.98332	-1925.69168	269.90986	970.46181	-1935.55954	34.7386	971.17233	-1931.46286	206.30602	1026.27449	-2146.56677	61.80879	1028.61923	-2140.43015	258.83343	746.08711	-2144.90845	293.15336	513.90102	-2041.08887	266.55781	307.96774	-2049.27063	276.44667	128.29108	-2150.42191	224.40983	121.02552	-2201.98959	252.79076	76.23399	-1982.0076	4.7071	726.01227	-2136.50238	2.79328	485.13573	-2052.87094	60.5897	298.05004	-2055.91858	24.00131	106.34864	-2154.95392	86.26643	114.33283	-2211.05423	44.59029	81.59133	-1992.22763
21	1.937	243.59863	1698.25912	-1966.58691	58.07298	1700.6662	-1978.08609	258.20507	1660.82657	-2091.58615	55.53545	1674.91776	-2091.25488	217.3057	1432.55859	-1962.67105	93.84183	1428.15384	-1965.76782	227.54118	1487.52838	-2110.42755	73.0828	1485.8992	-2103.30948	149.95271	1323.91556	-2179.70764	163.86419	1367.05246	-1922.34924	163.90009	1267.36542	-1894.24026	348.84411	1436.81503	-2043.61786	401.13808	1207.77435	-2048.27362	411.81686	1123.14156	-2088.22998	437.07241	1010.62981	-2046.00555	391.95724	899.67484	-1949.89166	421.83987	878.62274	-2019.40613	442.30186	845.52963	-1957.00333	-35.56395	1424.90707	-2021.67221	-96.10126	1249.29482	-2064.4809	-115.99764	1132.36374	-2072.60498	-137.42946	997.14958	-2042.13364	-89.13596	894.14101	-1938.37601	-151.2666	879.61777	-1993.05771	-150.61957	846.03882	-1925.60699	268.33597	970.41908	-1933.79242	33.20857	970.93315	-1928.89999	204.03248	1026.03577	-2144.53171	59.561	1028.19275	-2137.98843	257.60199	745.96184	-2143.50021	294.19319	513.86154	-2042.43057	267.55796	307.90535	-2049.17542	277.02751	128.50503	-2150.80246	224.82567	121.19028	-2202.19177	253.49932	76.5829	-1982.57996	3.71583	725.78888	-2133.90198	0.92577	483.89984	-2052.91901	60.80672	297.59367	-2055.22827	23.45569	106.32811	-2155.02136	85.58942	114.43655	-2211.37405	45.04476	82.36984	-1992.90619
22	1.97	241.63363	1697.62909	-1961.29791	56.26241	1700.10849	-1972.69867	256.54591	1660.71228	-2086.4212	53.64554	1674.72351	-2086.1084	215.36032	1432.00562	-1958.60001	91.99652	1427.62787	-1961.3446	225.47754	1487.3613	-2106.29883	70.99011	1485.60349	-2098.9444	147.81697	1323.75854	-2175.65948	162.2327	1366.50665	-1918.34503	162.17625	1266.76292	-1890.31708	347.13264	1436.2088	-2039.0834	399.52557	1207.53891	-2045.88226	409.95178	1122.8788	-2085.8577	435.2486	1010.16808	-2043.92487	390.31277	899.06601	-1948.22983	420.06721	878.15094	-2017.85416	440.59677	844.81552	-1955.57632	-37.57857	1424.12796	-2017.41058	-97.62482	1248.5083	-2060.91217	-117.24943	1131.63979	-2069.81171	-138.00497	996.01921	-2040.05875	-88.92155	892.36633	-1937.36542	-151.25534	878.1279	-1991.88797	-150.04042	843.85605	-1924.61548	266.51829	970.12039	-1931.33926	31.50039	970.10223	-1925.2066	201.17947	1026.11427	-2141.41022	56.71746	1028.08617	-2134.23172	255.30201	746.43608	-2141.44089	296.27069	514.83391	-2045.62439	267.98437	307.85824	-2049.487	277.13444	128.61406	-2151.15234	224.82731	121.23013	-2202.32819	253.76381	76.51313	-1982.77954	0.30399	725.64148	-2131.6777	-0.60547	483.4362	-2052.83005	60.23456	297.13858	-2054.51752	23.54432	106.21977	-2154.88113	85.45438	114.55627	-2211.36353	45.78794	82.27996	-1992.88773
23	2.003	239.28907	1696.7215	-1954.65073	53.82551	1699.31595	-1965.979	253.94705	1660.24582	-2079.83566	51.29234	1674.49539	-2079.59442	212.96848	1431.17081	-1953.53424	89.52143	1426.96167	-1955.92361	222.83932	1487.10571	-2101.06644	68.39553	1485.21332	-2093.28827	144.91917	1323.68896	-2170.83466	159.80677	1365.63248	-1913.28903	160.00792	1265.80681	-1885.61035	344.39121	1435.83923	-2035.08347	396.91513	1206.99623	-2042.27676	407.40723	1122.68692	-2082.81342	432.90859	1009.74342	-2041.31485	388.52192	898.32809	-1945.8287	417.94312	877.67891	-2015.7077	438.85319	844.21463	-1953.70575	-40.2427	1423.50327	-2012.18948	-99.88202	1247.74742	-2056.56738	-118.93838	1130.79483	-2066.0228	-138.89684	994.90692	-2037.02744	-88.88727	890.87448	-1935.17105	-151.34555	876.55197	-1989.3631	-149.71301	842.00218	-1922.45148	264.417	969.44183	-1928.11996	29.64536	969.21806	-1920.71152	197.62794	1025.99312	-2137.81387	53.15072	1027.75497	-2129.73053	252.20932	746.84097	-2139.4162	294.63091	514.31576	-2044.62967	267.48989	307.68879	-2049.31824	276.2586	128.65699	-2151.13998	223.80854	121.2164	-2202.06055	253.40195	76.00776	-1982.37015	-3.12715	725.24193	-2127.92114	-1.49395	482.7282	-2049.63379	59.50036	296.61268	-2053.79181	23.40462	105.97514	-2154.57428	85.33219	114.71094	-2211.15097	46.15008	81.81986	-1992.50153
24	2.037	236.30844	1695.70389	-1946.73416	50.91848	1698.36624	-1957.90009	251.4949	1658.79059	-2071.06644	48.41961	1673.80173	-2071.73767	210.08713	1430.03357	-1947.22672	86.83288	1425.97351	-1949.03625	219.79763	1486.94962	-2094.46808	65.24584	1484.8204	-2086.25412	141.45687	1323.76297	-2164.74731	156.86314	1364.39957	-1907.33673	157.07574	1264.27795	-1880.06241	341.77036	1435.07645	-2027.91916	393.97636	1206.57051	-2038.16254	404.28562	1122.3468	-2079.03122	430.08766	1009.29321	-2038.22754	386.37947	897.36435	-1942.89948	415.14507	876.99928	-2012.94312	436.64314	843.40485	-1951.23276	-43.31937	1422.69531	-2005.4422	-102.99707	1247.04651	-2050.69641	-121.61495	1129.90082	-2060.81451	-140.47015	993.70018	-2032.29462	-89.0446	889.57787	-1931.1821	-151.70686	875.09453	-1985.21271	-149.34507	840.12276	-1918.42651	261.32339	968.50258	-1924.80362	26.76591	968.00766	-1915.78278	193.14253	1025.49797	-2134.07883	48.69854	1026.996	-2124.96109	248.24795	746.24832	-2136.86127	290.79414	513.33557	-2040.8197	267.11964	307.2784	-2048.6026	275.46522	128.85214	-2151.21536	222.72995	121.31331	-2201.73508	253.50681	75.83436	-1982.27066	-5.81718	724.79462	-2124.048	-2.79678	481.87008	-2046.48453	58.79113	296.06384	-2052.6915	22.96818	105.76114	-2154.52698	84.82081	114.87865	-2211.14304	46.42632	81.62433	-1992.40814
